<?xml version="1.0" encoding="UTF-8"?>
<svg id="Livello_1" xmlns="http://www.w3.org/2000/svg" xmlns:xlink="http://www.w3.org/1999/xlink" viewBox="0 0 1000 1000">
  <defs>
    <style>
      .cls-1 {
        fill: #fff;
      }

      .cls-1, .cls-2 {
        fill-rule: evenodd;
      }

      .cls-2 {
        fill: url(#Sfumatura_senza_nome_21);
      }
    </style>
    <linearGradient id="Sfumatura_senza_nome_21" data-name="Sfumatura senza nome 21" x1="-2174.97" y1="-818.19" x2="-2083.25" y2="-740.12" gradientTransform="translate(3790.7 -986.85) scale(1.64 -1.93)" gradientUnits="userSpaceOnUse">
      <stop offset="0" stop-color="#5941e9"/>
      <stop offset=".15" stop-color="#5e40e9"/>
      <stop offset=".35" stop-color="#6f3de9"/>
      <stop offset=".58" stop-color="#8b38ea"/>
      <stop offset=".83" stop-color="#b132eb"/>
      <stop offset="1" stop-color="#d12ded"/>
    </linearGradient>
  </defs>
  <path class="cls-2" d="M268.32,484.16c31.27-10.78,36.59-38.85,32.6-64.67,0-.93.8-1.6,1.6-1.33,29.94,14.64,63.6,46.57,63.6,94.48,0,36.73-28.48,69.19-69.86,69.19-36.71,1.67-67.82-26.73-69.49-63.44-1.11-24.31,11.15-47.29,31.96-59.91.8-.53,1.86,0,1.86.93.4,4.92,1.73,17.3,7.19,24.75h.53Z"/>
  <path class="cls-1" d="M271.18,527.95s35.44-3.85,49.18-40.94c0,0,2.2-5.49,4.12-4.95,1.92.55,14.37,32.58-2.12,50.99-16.48,18.41-40.64,15.48-50.26,8.88h0s-13.7-9.2-.93-13.99Z"/>
  <path d="M614.74,475.45c-22.91-21.23-57.53-17.14-75.41.86-17.54,17.66-22.36,48.5-11.03,72.77,17.33,37.1,62.45,39.92,84.41,18.78.42-.4,1.12-.51,2.41-1.07v11.43h33.74v-152.95h-34.12v50.19ZM585.1,551.28c-17.26-.09-28.51-12.2-28.47-30.66.03-18.01,11.99-30.36,29.13-30.09,17.87.28,29.26,12.25,29.16,30.66-.1,18.05-12.12,30.18-29.81,30.09Z"/>
  <path d="M479.33,466.7c-23.7-9.57-47.65-6.12-71.47-.03-.84.21-1.95,1.84-1.87,2.71.8,8.56,1.82,17.1,2.82,26.07,2.17-.71,3.5-1.21,4.86-1.58,13.53-3.71,27.15-6.43,41.25-3.56,10.55,2.15,15.98,8.7,15.48,19.25-2.29-.13-4.59-.32-6.89-.37-15.17-.35-30.41-2.41-45.37,1.92-14.83,4.29-23.68,14.9-25,29.99-1.36,15.49,6.21,29.02,19.81,35.56,14.95,7.19,41.51,6.59,58.23-12.23v13.71h33.68c0-25.74.89-51.08-.32-76.32-.77-16.16-9.64-28.84-25.21-35.13ZM470.68,533.14c-2.21,13.5-12.06,21.45-26.61,20.77-3.22-.15-6.52-.67-9.6-1.61-5.45-1.66-8.85-6.17-8.62-11.19.25-5.59,3-10.08,8.44-11.37,6.96-1.66,14.19-2.22,21.3-3.26.05.32.09.63.14.95,3.61.26,7.22.64,10.84.74,3.43.1,4.73,1.14,4.11,4.97Z"/>
  <path d="M713.33,549.72c2-2.29,3.15-3.66,4.36-4.98,17.21-18.85,34.45-37.68,51.6-56.58,1.39-1.53,3.07-3.48,3.2-5.34.41-6.07.15-12.17.15-18.35h-102.98v28.18h56.82c-2.26,2.59-3.51,4.08-4.81,5.51-15.9,17.6-31.25,35.74-47.95,52.55-8.63,8.69-5.63,17.92-6.19,27.52h105.76v-28.52h-59.96Z"/>
</svg>